
        <svg xmlns="http://www.w3.org/2000/svg" xmlns:xlink="http://www.w3.org/1999/xlink" version="1.1" width="3171.4285714285716" 
        height="633.7067351539583" viewBox="0 0 3171.4285714285716 633.7067351539583">
			<rect fill="#ffffff" width="3171.4285714285716" height="633.7067351539583"/>
			<g transform="scale(8.571428571428571) translate(10, 10)">
				<defs id="SvgjsDefs1023"></defs><g id="SvgjsG1024" featureKey="nameFeature-0" transform="matrix(1.797748300189857,0,0,1.797748300189857,-5.8247092245423495,-17.97747957296581)" fill="#d72323"><path d="M22.2 28.2 l6.04 9.24 q0.44 0.72 0.04 1.44 q-0.16 0.32 -0.5 0.52 t-0.7 0.2 l-3.64 0 q-0.36 0 -0.68 -0.18 t-0.48 -0.46 l-6.08 -9.64 l-7.12 0 l0 8.88 q0 0.56 -0.42 0.98 t-0.98 0.42 l-3.04 0 q-0.56 0 -0.98 -0.42 t-0.42 -0.98 l0 -13.16 q0 -0.56 0.42 -0.98 t0.98 -0.42 l12.32 0 q3.52 0 4.68 -2 q0.4 -0.64 0.4 -1.84 q0 -1.88 -1.24 -2.96 q-1.28 -1.16 -3.68 -1.16 l-12.48 0 q-0.56 0 -0.98 -0.42 t-0.42 -0.98 l0 -2.88 q0 -0.56 0.42 -0.98 t0.98 -0.42 l12.84 0 q4.68 0 7.48 2.64 q2.92 2.64 2.92 7.16 q0 2.92 -1.28 4.98 t-3.72 3.14 z M47.8 10.84 l11.2 26.44 q0.2 0.32 0.2 0.68 q0 0.56 -0.4 0.98 t-1 0.42 l-3.32 0 q-0.44 0 -0.78 -0.22 t-0.5 -0.62 l-2.92 -6.88 l-11.32 0 l-2.88 6.88 q-0.16 0.4 -0.5 0.62 t-0.78 0.22 l-3.32 0 q-0.36 0 -0.68 -0.18 t-0.5 -0.46 t-0.22 -0.62 t0.12 -0.66 l11.28 -26.6 q0.16 -0.4 0.5 -0.62 t0.78 -0.22 l3.76 0 q0.44 0 0.78 0.22 t0.5 0.62 z M44.64 18.12 l-3.32 7.96 l6.64 0 z M80.32000000000001 11 q2.48 1.04 4.36 2.96 q4.16 4.24 4.16 10.72 t-4.16 10.72 q-1.88 1.92 -4.36 2.96 q-2.4 1 -5.08 1 l-11.2 0 q-0.56 0 -0.98 -0.42 t-0.42 -0.98 l0 -26.56 q0 -0.56 0.42 -0.98 t0.98 -0.42 l11.2 0 q2.6 0 5.08 1 z M68.44 15.64 l0 18.08 l6.68 0 q3.52 0 5.72 -2.58 t2.2 -6.46 t-2.2 -6.46 t-5.72 -2.58 l-6.68 0 z M98.08 10 q0.56 0 0.98 0.42 t0.42 0.98 l0 26.56 q0 0.56 -0.42 0.98 t-0.98 0.42 l-3 0 q-0.56 0 -0.98 -0.42 t-0.42 -0.98 l0 -26.56 q0 -0.56 0.42 -0.98 t0.98 -0.42 l3 0 z M129.64 10 q0.56 0 0.98 0.42 t0.42 0.98 l0 15.12 q0 5.84 -3.56 9.5 t-9.14 3.66 t-9.14 -3.66 t-3.56 -9.5 l0 -15.12 q0 -0.56 0.42 -0.98 t0.98 -0.42 l3 0 q0.56 0 0.98 0.42 t0.42 0.98 l0 15.2 q0 3.72 2.12 5.68 q1.8 1.68 4.76 1.68 t4.8 -1.68 q2.12 -2 2.12 -5.68 l0 -15.2 q0 -0.56 0.4 -0.98 t0.96 -0.42 l3.04 0 z M156.60000000000002 24.84 q1.68 1.08 2.58 2.64 t0.9 3.48 q0 4.4 -3.4 6.84 q-3.16 2.2 -8.52 2.2 q-6.08 0 -9.4 -2.64 q-3.04 -2.44 -3.48 -6.88 q-0.08 -0.64 0.36 -1.08 t1.04 -0.44 l3.12 0 q0.56 0 0.96 0.36 t0.44 0.92 q0.08 1.04 0.54 1.78 t1.42 1.3 q1.84 1.04 5.04 1.04 q2.76 0 4.28 -0.64 q1.16 -0.52 1.56 -1.4 q0.24 -0.48 0.24 -1.24 q0 -0.48 -0.18 -0.8 t-0.58 -0.6 q-1.12 -0.76 -2.96 -1.32 q-1.6 -0.48 -4.28 -1.12 q-2.44 -0.52 -4.6 -1.4 q-2.44 -1.04 -3.84 -2.48 q-1.76 -1.76 -1.76 -4.6 q0 -3.96 3 -6.4 q2.92 -2.36 8.44 -2.36 t8.68 2.64 q2.96 2.44 3.16 6.28 q0.08 0.56 -0.36 1.04 q-0.48 0.4 -1 0.4 l-3.12 0 q-0.52 0 -0.92 -0.34 t-0.44 -0.86 q-0.12 -1.04 -0.68 -1.72 q-0.8 -1 -2.56 -1.48 q-1.2 -0.36 -3.06 -0.36 t-2.96 0.38 t-1.62 0.82 t-0.64 0.88 q-0.2 0.68 -0.2 1.28 q0 0.32 0.36 0.68 q0.72 0.64 1.6 0.96 q1.12 0.48 2.76 0.88 t3.42 0.84 t3.38 0.96 q1.88 0.64 3.28 1.56 z M197.64000000000001 37.64 q0.24 0.32 0.28 0.72 t-0.12 0.76 t-0.52 0.58 t-0.76 0.22 l-3.88 0 q-0.72 0 -1.16 -0.56 l-7.64 -10.12 l-7.64 10.12 q-0.44 0.56 -1.12 0.56 l-3.92 0 q-0.4 0 -0.74 -0.2 t-0.5 -0.56 q-0.4 -0.84 0.12 -1.52 l20.72 -27.08 q0.44 -0.56 1.12 -0.56 l3.88 0 q0.4 0 0.74 0.22 t0.54 0.58 t0.16 0.76 t-0.32 0.72 l-9.4 12.24 z M176.56000000000003 19.76 l-5.76 -7.48 q-0.28 -0.32 -0.32 -0.72 t0.16 -0.76 t0.54 -0.58 t0.74 -0.22 l3.88 0 q0.32 0 0.64 0.14 t0.48 0.42 l5.64 7.48 q0.56 0.68 0.16 1.52 q-0.16 0.36 -0.5 0.56 t-0.78 0.2 l-3.76 0 q-0.32 0 -0.64 -0.14 t-0.48 -0.42 z"></path></g>
			</g>
		</svg>
	